<svg width="14" height="14" xmlns="http://www.w3.org/2000/svg">
    <g fill-rule="evenodd">
        <circle cx="7" cy="7" r="6" stroke="#ff5566" stroke-width="1.5" fill="none" />
        <path fill="#ff5566" d="M7 5.969L5.599 4.568a.29.29 0 0 0-.413.004l-.614.614a.294.294 0 0 0-.004.413L5.968 7l-1.4 1.401a.29.29 0 0 0 .004.413l.614.614c.113.114.3.117.413.004L7 8.032l1.401 1.4a.29.29 0 0 0 .413-.004l.614-.614a.294.294 0 0 0 .004-.413L8.032 7l1.4-1.401a.29.29 0 0 0-.004-.413l-.614-.614a.294.294 0 0 0-.413-.004L7 5.968z"></path> <!-- X -->
    </g>
</svg>