<svg width="14" height="14" viewBox="0 0 14 14" xmlns="http://www.w3.org/2000/svg">
  <circle fill="none" stroke-width="1.5" stroke="#1f75cb" r="6" cy="7" cx="7"/>
  <path d="M6.995 10.64a3.645 3.645 0 110-7.29 3.645 3.645 0 010 7.29zm0-1.042a2.603 2.603 0 100-5.206 2.603 2.603 0 000 5.206z" fill="#1f75cb"/>
  <path d="M7.033 4.92h-.065a.488.488 0 00-.488.488v1.627c0 .27.218.488.488.488h.065c.27 0 .488-.218.488-.488V5.408a.488.488 0 00-.488-.488z" fill="#1f75cb"/>
  <path d="M8.075 6.48H6.968a.488.488 0 00-.488.488v.065c0 .27.218.488.488.488h1.107c.27 0 .488-.218.488-.488v-.065a.488.488 0 00-.488-.488z" fill="#1f75cb"/>
</svg>
