<svg width="14" height="14" viewBox="0 0 14 14" xmlns="http://www.w3.org/2000/svg">
    <circle cx="7" cy="7" r="6" stroke="#ffaa44" stroke-width="1.5" fill="none" />
    <path d="M8.16 7.184c.519-.37.904-.857 1.07-1.477.384-1.427-.619-2.897-2.246-2.897-.732 0-1.327.26-1.766.692a2.163 2.163 0 0 0-.509.743.75.75 0 0 0 1.4.54.78.78 0 0 1 .16-.213c.168-.165.39-.262.715-.262.597 0 .936.496.798 1.007-.067.249-.235.462-.492.644-.231.165-.47.264-.601.3a.75.75 0 0 0-.556.724v1.421a.75.75 0 0 0 1.5 0v-.909c.168-.082.346-.185.526-.313z" fill="#ffaa44" fill-rule="nonzero"/>
    <ellipse cx="6.889" cy="10.634" rx="1" ry="1" style="fill: #ffaa44"/>
</svg>