<?xml version="1.0" encoding="UTF-8" standalone="no"?>

<svg
   xmlns:dc="http://purl.org/dc/elements/1.1/"
   xmlns:cc="http://creativecommons.org/ns#"
   xmlns:rdf="http://www.w3.org/1999/02/22-rdf-syntax-ns#"
   xmlns:svg="http://www.w3.org/2000/svg"
   xmlns="http://www.w3.org/2000/svg"
   xmlns:sodipodi="http://sodipodi.sourceforge.net/DTD/sodipodi-0.dtd"
   xmlns:inkscape="http://www.inkscape.org/namespaces/inkscape"
   width="82.245094mm"
   height="78.67202mm"
   viewBox="0 0 82.245096 78.672019">
  <g
     transform="translate(-51.83215,-24.102714)">
    <path
       style="fill:#FF6600;stroke-width:0.26147255"
       d="m 73.154332,88.394423 c -10.528362,-7.90928 -19.41805,-14.64037 -19.754866,-14.95799 -0.806527,-0.76054 -1.560256,-2.48522 -1.567311,-3.58629 -0.0031,-0.4848 1.433115,-5.45085 3.191601,-11.03567 1.758485,-5.58481 4.765154,-15.15918 6.681488,-21.27636 1.916332,-6.11719 3.683022,-11.47022 3.925976,-11.89561 1.221309,-2.13844 4.742776,-2.01517 5.810365,0.20339 0.196658,0.40867 2.19801,6.63465 4.447454,13.8355 l 4.089897,13.09245 13.035949,0.004 13.035935,0.004 2.98412,-9.50663 c 5.55867,-17.70853 5.47697,-17.47116 6.29099,-18.27779 1.51204,-1.49834 4.29494,-1.04706 5.23118,0.84829 0.20187,0.40867 2.93589,8.94001 6.07559,18.95854 3.1397,10.01852 6.10391,19.47723 6.58714,21.01935 1.04711,3.34167 1.12228,4.98604 0.29588,6.4727 -0.45681,0.82176 -3.86047,3.50311 -16.64298,13.11104 -23.177065,17.420977 -23.103355,17.367387 -23.887135,17.367387 -0.50252,0 -5.86559,-3.888987 -19.831273,-14.380497 z m 25.724181,-12.74331 c 3.145707,-10.01852 5.774847,-18.36508 5.842517,-18.5479 0.0973,-0.26292 -2.32784,-0.3324 -11.602495,-0.3324 -6.44906,0 -11.72555,0.0897 -11.725548,0.19944 3e-6,0.21962 0.15552,0.72197 4.795298,15.48983 1.76911,5.63084 3.96738,12.63118 4.88505,15.5563 0.91767,2.92511 1.72086,5.4851 1.78487,5.68885 0.064,0.20375 0.15788,0.32342 0.2086,0.26592 0.0507,-0.0575 2.66599,-8.30151 5.811708,-18.32004 z M 79.65681,86.378303 c -1.542208,-2.02417 -6.717552,-8.88569 -11.500762,-15.24782 -4.783211,-6.36213 -8.783254,-11.66966 -8.888986,-11.79452 -0.245394,-0.28979 -3.633715,10.29219 -3.449058,10.77167 0.145122,0.37682 26.406832,20.19508 26.556251,20.04053 0.04762,-0.0493 -1.175234,-1.74569 -2.717445,-3.76986 z m 37.25087,-6.02334 c 8.76082,-6.58219 13.22698,-10.09528 13.26893,-10.43735 0.0348,-0.28358 -0.66547,-2.84088 -1.5561,-5.68287 l -1.61932,-5.16725 -11.40237,15.13924 c -6.27132,8.32659 -11.57622,15.34866 -11.78867,15.6046 -0.21246,0.25595 -0.32371,0.46536 -0.24722,0.46536 0.0765,0 6.08162,-4.46477 13.34475,-9.92173 z m -34.499547,-6.79358 c -2.818781,-8.96683 -5.190559,-16.41296 -5.270623,-16.54695 -0.225566,-0.3775 -14.579756,-0.31838 -14.45796,0.0595 0.12574,0.39016 24.687735,32.96235 24.782385,32.86445 0.0392,-0.0405 -2.235024,-7.4102 -5.053802,-16.37704 z m 28.771357,-0.10754 c 6.80781,-9.03319 12.37784,-16.48226 12.37784,-16.5535 0,-0.0712 -3.29026,-0.12953 -7.31168,-0.12953 h -7.3117 l -2.86376,9.10775 c -1.57506,5.00927 -3.896,12.38037 -5.15764,16.38024 -2.051147,6.50291 -2.505207,8.09655 -2.202397,7.72982 0.0503,-0.061 5.661517,-7.50159 12.469337,-16.53478 z M 75.736789,52.545303 c 0,-0.30483 -6.939079,-22.38903 -7.175984,-22.83817 -0.09828,-0.18632 -1.779233,4.77973 -3.735459,11.03566 -1.956229,6.25594 -3.611111,11.52401 -3.677517,11.70683 -0.09484,0.26108 1.457234,0.3324 7.234109,0.3324 4.126922,0 7.354851,-0.10389 7.354851,-0.23672 z m 49.106041,-0.048 c 0,-0.39637 -6.97573,-22.67359 -7.17267,-22.90616 -0.088,-0.10388 -1.76575,4.922 -3.72841,11.16863 -1.96267,6.24662 -3.61977,11.50707 -3.68247,11.68989 -0.0895,0.26092 1.46639,0.3324 7.23479,0.3324 5.05187,0 7.34876,-0.089 7.34876,-0.28476 z"
       inkscape:connector-curvature="0"
       sodipodi:nodetypes="cccssccscccsccsccssccscsccsccssscccsccccscscccccccsssccscsscscssscccss" />
  </g>
</svg>
